<svg xmlns="http://www.w3.org/2000/svg" viewBox="0 0 1600 900">
<defs>
 <linearGradient id="bg" x1="0" y1="0" x2="1" y2="1"><stop stop-color="#4C1D95"/><stop offset=".48" stop-color="#7C3AED"/><stop offset="1" stop-color="#2563EB"/></linearGradient>
 <linearGradient id="glow" x1="0" y1="0" x2="1" y2="0"><stop stop-color="#FFF" stop-opacity=".08"/><stop offset="1" stop-color="#FFF" stop-opacity=".28"/></linearGradient>
</defs>
<rect width="1600" height="900" rx="48" fill="url(#bg)"/>
<circle cx="1400" cy="120" r="260" fill="#FFF" opacity=".10"/>
<circle cx="90" cy="820" r="240" fill="#38BDF8" opacity=".16"/>
<path d="M820 0 C1050 190 1190 130 1600 60 V900 H820Z" fill="#0EA5E9" opacity=".22"/>
<g transform="translate(65 88)">
 <rect width="640" height="80" rx="40" fill="#FBBF24"/>
 <text x="35" y="52" font-family="Arial,sans-serif" font-size="28" font-weight="900" fill="#422006">✦ GAME BARU • LITERASI TK–SD</text>
 <text x="0" y="190" font-family="Arial,sans-serif" font-size="82" font-weight="900" fill="#FFF">BERMAIN</text>
 <text x="0" y="285" font-family="Arial,sans-serif" font-size="100" font-weight="900" fill="#FDE68A">KATA</text>
 <text x="4" y="350" font-family="Arial,sans-serif" font-size="31" font-weight="700" fill="#E0F2FE">Main kata, belajar bahasa, dan kumpulkan stiker</text>
 <text x="4" y="394" font-family="Arial,sans-serif" font-size="31" font-weight="700" fill="#E0F2FE">bersama Zelby. Ringan untuk TK–SD.</text>
 <g transform="translate(0 450)">
  <rect width="210" height="58" rx="29" fill="#FFF" opacity=".18"/><text x="34" y="38" font-family="Arial,sans-serif" font-size="22" font-weight="900" fill="#FFF">⚡ +50 XP</text>
  <rect x="230" width="220" height="58" rx="29" fill="#FFF" opacity=".18"/><text x="267" y="38" font-family="Arial,sans-serif" font-size="22" font-weight="900" fill="#FFF">◷ ~3 menit</text>
  <rect x="470" width="160" height="58" rx="29" fill="#FFF" opacity=".18"/><text x="510" y="38" font-family="Arial,sans-serif" font-size="22" font-weight="900" fill="#FFF">Solo</text>
 </g>
</g>
<g transform="translate(1030 230) scale(1.35)">
<g transform="translate(95 250)">
  <circle cx="115" cy="115" r="105" fill="#B96B32"/>
  <ellipse cx="45" cy="85" rx="42" ry="55" fill="#D88A45"/>
  <ellipse cx="185" cy="85" rx="42" ry="55" fill="#D88A45"/>
  <circle cx="80" cy="110" r="42" fill="#FFF7E8"/>
  <circle cx="150" cy="110" r="42" fill="#FFF7E8"/>
  <circle cx="82" cy="112" r="25" fill="#3B2417"/>
  <circle cx="148" cy="112" r="25" fill="#3B2417"/>
  <circle cx="74" cy="103" r="8" fill="white"/>
  <circle cx="140" cy="103" r="8" fill="white"/>
  <path d="M102 151 Q115 164 128 151" fill="none" stroke="#7A3D20" stroke-width="7" stroke-linecap="round"/>
  <path d="M102 176 Q115 192 128 176" fill="none" stroke="#7A3D20" stroke-width="7" stroke-linecap="round"/>
  <path d="M72 207 Q115 240 158 207" fill="none" stroke="#7A3D20" stroke-width="13" stroke-linecap="round"/>
  <path d="M48 220 Q18 260 34 300" fill="none" stroke="#B96B32" stroke-width="22" stroke-linecap="round"/>
  <path d="M183 220 Q215 255 198 298" fill="none" stroke="#B96B32" stroke-width="22" stroke-linecap="round"/>
</g></g>
<g transform="translate(950 680)"><rect width="520" height="110" rx="34" fill="url(#glow)"/><text x="38" y="48" font-family="Arial,sans-serif" font-size="25" font-weight="900" fill="#FFF">SUSUN KATA</text><text x="38" y="82" font-family="Arial,sans-serif" font-size="18" fill="#E0F2FE">KATA RUMPANG • PASANGAN • MAKNA</text></g>
</svg>