<svg xmlns="http://www.w3.org/2000/svg" viewBox="0 0 1200 800">
<defs>
 <linearGradient id="bg" x1="0" y1="0" x2="1" y2="1"><stop stop-color="#E0F2FE"/><stop offset=".5" stop-color="#ECFDF5"/><stop offset="1" stop-color="#DBEAFE"/></linearGradient>
 <linearGradient id="hero" x1="0" y1="0" x2="1" y2="1"><stop stop-color="#4C1D95"/><stop offset="1" stop-color="#2563EB"/></linearGradient>
</defs>
<rect width="1200" height="800" rx="48" fill="url(#bg)"/>
<rect x="32" y="32" width="1136" height="736" rx="42" fill="#FFF"/>
<rect x="58" y="58" width="1084" height="420" rx="34" fill="url(#hero)"/>
<circle cx="1020" cy="115" r="160" fill="#FFF" opacity=".10"/>
<g transform="translate(680 92) scale(.92)">
<g transform="translate(95 250)">
  <circle cx="115" cy="115" r="105" fill="#B96B32"/>
  <ellipse cx="45" cy="85" rx="42" ry="55" fill="#D88A45"/>
  <ellipse cx="185" cy="85" rx="42" ry="55" fill="#D88A45"/>
  <circle cx="80" cy="110" r="42" fill="#FFF7E8"/>
  <circle cx="150" cy="110" r="42" fill="#FFF7E8"/>
  <circle cx="82" cy="112" r="25" fill="#3B2417"/>
  <circle cx="148" cy="112" r="25" fill="#3B2417"/>
  <circle cx="74" cy="103" r="8" fill="white"/>
  <circle cx="140" cy="103" r="8" fill="white"/>
  <path d="M102 151 Q115 164 128 151" fill="none" stroke="#7A3D20" stroke-width="7" stroke-linecap="round"/>
  <path d="M102 176 Q115 192 128 176" fill="none" stroke="#7A3D20" stroke-width="7" stroke-linecap="round"/>
  <path d="M72 207 Q115 240 158 207" fill="none" stroke="#7A3D20" stroke-width="13" stroke-linecap="round"/>
  <path d="M48 220 Q18 260 34 300" fill="none" stroke="#B96B32" stroke-width="22" stroke-linecap="round"/>
  <path d="M183 220 Q215 255 198 298" fill="none" stroke="#B96B32" stroke-width="22" stroke-linecap="round"/>
</g></g>
<text x="105" y="145" font-family="Arial,sans-serif" font-size="28" font-weight="900" fill="#FDE68A">✦ EKOSISTEM PEMBELAJARAN BAHASA INDONESIA</text>
<text x="105" y="245" font-family="Arial,sans-serif" font-size="76" font-weight="900" fill="#FFF">BERMAIN</text>
<text x="105" y="330" font-family="Arial,sans-serif" font-size="92" font-weight="900" fill="#FBBF24">KATA</text>
<text x="105" y="385" font-family="Arial,sans-serif" font-size="25" font-weight="700" fill="#E0F2FE">Main, belajar, dan kumpulkan kata baru bersama Zelby.</text>
<g transform="translate(75 520)">
 <rect width="250" height="180" rx="28" fill="#F0FDF4"/><text x="28" y="48" font-family="Arial,sans-serif" font-size="22" font-weight="900" fill="#166534">SUSUN KATA</text><text x="28" y="86" font-family="Arial,sans-serif" font-size="17" fill="#64748B">Susun huruf jadi kata.</text>
 <rect x="275" width="250" height="180" rx="28" fill="#FFF7ED"/><text x="303" y="48" font-family="Arial,sans-serif" font-size="22" font-weight="900" fill="#C2410C">KATA RUMPANG</text><text x="303" y="86" font-family="Arial,sans-serif" font-size="17" fill="#64748B">Lengkapi huruf yang hilang.</text>
 <rect x="550" width="250" height="180" rx="28" fill="#EFF6FF"/><text x="578" y="48" font-family="Arial,sans-serif" font-size="22" font-weight="900" fill="#1D4ED8">CARI PASANGAN</text><text x="578" y="86" font-family="Arial,sans-serif" font-size="17" fill="#64748B">Temukan kata yang cocok.</text>
 <rect x="825" width="250" height="180" rx="28" fill="#FAF5FF"/><text x="853" y="48" font-family="Arial,sans-serif" font-size="22" font-weight="900" fill="#7E22CE">MAKNA KATA</text><text x="853" y="86" font-family="Arial,sans-serif" font-size="17" fill="#64748B">Kenali sinonim & lawan kata.</text>
</g>
</svg>